Coordinates
version=1
nRows=27
nColumns=38
inDegrees=no

Units are S.I. units (second, meters, Newtons, ...)
If the header above contains a line with 'inDegrees', this indicates whether rotational values are in degrees (yes) or radians (no).

endheader
time	pelvis_tilt	pelvis_list	pelvis_rotation	pelvis_tx	pelvis_ty	pelvis_tz	hip_flexion_r	hip_adduction_r	hip_rotation_r	knee_angle_r	ankle_angle_r	subtalar_angle_r	mtp_angle_r	hip_flexion_l	hip_adduction_l	hip_rotation_l	knee_angle_l	ankle_angle_l	subtalar_angle_l	mtp_angle_l	lumbar_extension	lumbar_bending	lumbar_rotation	arm_flex_r	arm_add_r	arm_rot_r	elbow_flex_r	pro_sup_r	wrist_flex_r	wrist_dev_r	arm_flex_l	arm_add_l	arm_rot_l	elbow_flex_l	pro_sup_l	wrist_flex_l	wrist_dev_l
1.23	2.53437	1.51293	-0.777307	0.722896	0.823682	0.933807	0.372802	-0.0979311	-0.421207	0.548719	0.0662252	0	0	0.0291012	-0.129545	0.0445625	1.10225	-0.0945769	0	0	-0.0563529	0.0774964	-0.205054	-0.168725	-0.162566	0.115683	0.479461	1.07229	0	0	-0.0505601	-0.230293	0.390988	0.651631	0.818638	0	0
1.24	2.48343	1.50835	-0.72281	0.723684	0.833669	0.93536	0.356008	-0.0878774	-0.425404	0.542726	0.0722406	0	0	0.0604289	-0.131616	0.0584282	1.15081	-0.0989076	0	0	-0.0577844	0.084703	-0.204911	-0.165481	-0.167216	0.115332	0.492195	1.06775	0	0	-0.0514557	-0.229086	0.396972	0.643212	0.817563	0	0
1.25	2.47691	1.50499	-0.714319	0.724489	0.843608	0.937122	0.337811	-0.0801279	-0.42821	0.535768	0.0794014	0	0	0.0892131	-0.129686	0.0692382	1.19563	-0.0872057	0	0	-0.0604554	0.0889624	-0.203016	-0.161331	-0.171398	0.115468	0.503477	1.06277	0	0	-0.0524278	-0.228169	0.402381	0.634502	0.818373	0	0
1.26	2.50436	1.50394	-0.742397	0.725323	0.853435	0.938985	0.320071	-0.0753412	-0.428485	0.528896	0.0870426	0	0	0.116332	-0.123876	0.075444	1.23481	-0.0701194	0	0	-0.0636408	0.0894981	-0.199014	-0.155829	-0.174956	0.117328	0.512721	1.05525	0	0	-0.054204	-0.227617	0.405298	0.627774	0.820202	0	0
1.27	2.53963	1.50219	-0.779283	0.726456	0.863124	0.941106	0.299203	-0.0686115	-0.425802	0.51605	0.0927657	0	0	0.14126	-0.118819	0.0785479	1.26802	-0.0526508	0	0	-0.0683345	0.0899582	-0.19262	-0.149383	-0.172597	0.0871851	0.516471	1.11658	0	0	-0.0540857	-0.227917	0.413713	0.621855	0.812054	0	0
1.28	2.58255	1.50244	-0.825769	0.727599	0.872672	0.943159	0.280285	-0.0639071	-0.422383	0.503881	0.0980697	0	0	0.16637	-0.111792	0.0787134	1.29588	-0.0389414	0	0	-0.0719127	0.0881208	-0.185614	-0.14283	-0.175608	0.0885747	0.5245	1.11663	0	0	-0.0562946	-0.227706	0.414469	0.618677	0.81275	0	0
1.29	2.6255	1.50316	-0.873665	0.728869	0.882179	0.945192	0.261652	-0.059236	-0.418472	0.490487	0.102378	0	0	0.191279	-0.104717	0.0768244	1.3185	-0.0299533	0	0	-0.0751319	0.0856902	-0.177343	-0.135917	-0.17885	0.0910138	0.532286	1.11578	0	0	-0.059334	-0.22769	0.413412	0.617407	0.813932	0	0
1.3	2.66926	1.50416	-0.923666	0.730183	0.89157	0.947194	0.242965	-0.0545592	-0.414009	0.475558	0.105829	0	0	0.215787	-0.0976683	0.0732084	1.33606	-0.0246773	0	0	-0.0781638	0.0829317	-0.16791	-0.128642	-0.181978	0.0935738	0.539608	1.11276	0	0	-0.0631361	-0.227614	0.410731	0.61793	0.816169	0	0
1.31	2.7136	1.50505	-0.97509	0.731509	0.900874	0.949149	0.223909	-0.0497405	-0.408881	0.459595	0.108918	0	0	0.239366	-0.0910137	0.0683656	1.34885	-0.0209141	0	0	-0.0812307	0.0802126	-0.157938	-0.120866	-0.185239	0.0971589	0.546386	1.10755	0	0	-0.0678381	-0.227731	0.407396	0.619394	0.819258	0	0
1.32	2.76411	1.50523	-1.03423	0.732929	0.910149	0.951045	0.204164	-0.0448084	-0.402113	0.443173	0.111759	0	0	0.261103	-0.0850564	0.06147	1.35695	-0.0174213	0	0	-0.0852617	0.0773679	-0.146845	-0.112197	-0.188802	0.102544	0.552435	1.10051	0	0	-0.0733094	-0.227589	0.401072	0.623534	0.821987	0	0
1.33	2.81993	1.50495	-1.09904	0.734358	0.919383	0.952857	0.183878	-0.0403627	-0.39538	0.426649	0.114616	0	0	0.281299	-0.0792562	0.0539927	1.3605	-0.0134033	0	0	-0.0896853	0.074085	-0.135364	-0.103206	-0.192436	0.109409	0.55763	1.09209	0	0	-0.0794128	-0.227522	0.392898	0.629972	0.824629	0	0
1.34	2.88685	1.50474	-1.17461	0.735647	0.928671	0.954512	0.164495	-0.0380283	-0.390762	0.412621	0.118511	0	0	0.300423	-0.0725034	0.0466981	1.35973	-0.00900238	0	0	-0.0939326	0.069788	-0.124157	-0.0942695	-0.195416	0.115206	0.562224	1.08282	0	0	-0.0854895	-0.227957	0.386075	0.635881	0.827443	0	0
1.35	2.9476	1.501	-1.24627	0.737356	0.938026	0.95643	0.139086	-0.0316823	-0.376909	0.390867	0.118696	0	0	0.313965	-0.0688416	0.0368736	1.35375	-0.00306878	0	0	-0.101832	0.0667912	-0.11264	-0.0818008	-0.199328	0.126339	0.56255	1.08647	0	0	-0.0933408	-0.222751	0.353913	0.637876	0.875572	0	0
1.36	3.02708	1.49902	-1.33828	0.738957	0.947207	0.957981	0.11893	-0.0303354	-0.365376	0.376606	0.121351	0	0	0.32813	-0.0629287	0.0251129	1.34429	0.00316439	0	0	-0.107979	0.0610686	-0.0991075	-0.0697579	-0.203154	0.137933	0.563116	1.08091	0	0	-0.100089	-0.221483	0.338986	0.644302	0.885312	0	0
1.37	3.10737	1.49605	-1.43075	0.740472	0.956323	0.959411	0.098719	-0.0300129	-0.353265	0.363139	0.123707	0	0	0.340751	-0.0567641	0.0135854	1.33116	0.0102584	0	0	-0.114843	0.0548353	-0.0862227	-0.0568034	-0.206787	0.150555	0.562471	1.07574	0	0	-0.106926	-0.220142	0.323038	0.651531	0.895253	0	0
1.38	-3.10256	1.49156	-1.51442	0.741808	0.965355	0.960819	0.0768094	-0.0299201	-0.341235	0.348768	0.125415	0	0	0.351123	-0.0503709	0.0036784	1.3143	0.018835	0	0	-0.122625	0.0485882	-0.0752455	-0.0433572	-0.210021	0.163923	0.560589	1.07145	0	0	-0.113399	-0.218944	0.307652	0.65861	0.9048	0	0
1.39	-3.03783	1.4866	-1.58843	0.742988	0.974506	0.962073	0.055034	-0.0303399	-0.329688	0.334877	0.126875	0	0	0.360284	-0.0436377	-0.00493959	1.29402	0.0290524	0	0	-0.130218	0.0423712	-0.0658112	-0.0296341	-0.21271	0.176903	0.557716	1.06811	0	0	-0.12013	-0.218062	0.294799	0.6637	0.912923	0	0
1.4	-2.97935	1.48151	-1.65636	0.744131	0.98352	0.963154	0.0339587	-0.0311745	-0.317585	0.321475	0.128009	0	0	0.368507	-0.0367492	-0.0132964	1.27053	0.0396662	0	0	-0.137777	0.0359904	-0.0561896	-0.0159596	-0.21507	0.188444	0.554989	1.06582	0	0	-0.12648	-0.217221	0.283007	0.668888	0.918848	0	0
1.41	-2.92778	1.47665	-1.71706	0.745205	0.992455	0.963995	0.0144074	-0.0325205	-0.306184	0.30971	0.129386	0	0	0.376437	-0.0299189	-0.0210095	1.24435	0.0500644	0	0	-0.14483	0.0296367	-0.0467253	-0.00250876	-0.217421	0.199616	0.552744	1.06361	0	0	-0.132301	-0.216266	0.271798	0.6756	0.921945	0	0
1.42	-2.8807	1.47298	-1.77201	0.746026	1.00128	0.964542	-0.00179969	-0.0348081	-0.29802	0.302027	0.132488	0	0	0.385181	-0.0229952	-0.0273788	1.21572	0.0604689	0	0	-0.150191	0.0236486	-0.0382858	0.0100803	-0.219824	0.209401	0.551645	1.06025	0	0	-0.137303	-0.215625	0.264062	0.681289	0.923445	0	0
1.43	-2.86162	1.4667	-1.79837	0.747047	1.01021	0.965292	-0.0261332	-0.0325689	-0.28017	0.283494	0.13058	0	0	0.388685	-0.0190309	-0.0339844	1.1832	0.0716985	0	0	-0.159027	0.0193996	-0.0319628	0.0261914	-0.219609	0.211523	0.542589	1.09991	0	0	-0.143726	-0.212052	0.24219	0.687309	0.948163	0	0
1.44	-2.83395	1.46274	-1.83285	0.747781	1.01899	0.965561	-0.043404	-0.0334603	-0.26881	0.274167	0.133106	0	0	0.3944	-0.0146527	-0.0412344	1.14868	0.0821083	0	0	-0.164882	0.0146679	-0.0254553	0.0397115	-0.221459	0.221376	0.539634	1.10294	0	0	-0.149124	-0.210708	0.232334	0.693991	0.95158	0	0
1.45	-2.80989	1.46004	-1.86225	0.748407	1.02775	0.965585	-0.058907	-0.0343896	-0.259908	0.266215	0.136622	0	0	0.400372	-0.0111837	-0.0483442	1.11206	0.0916701	0	0	-0.169131	0.0105594	-0.0203358	0.0523943	-0.222733	0.229956	0.537135	1.10489	0	0	-0.154571	-0.209589	0.223978	0.699748	0.954541	0	0
1.46	-2.78758	1.45822	-1.88929	0.748977	1.03653	0.965402	-0.0726692	-0.0355296	-0.252588	0.260135	0.141451	0	0	0.406108	-0.00898745	-0.0568003	1.07328	0.099951	0	0	-0.172306	0.00678701	-0.0156513	0.0642603	-0.223681	0.238008	0.535216	1.10562	0	0	-0.159689	-0.208874	0.217569	0.704669	0.957251	0	0
1.47	-2.76783	1.45662	-1.91396	0.74959	1.04541	0.965082	-0.0854232	-0.0368408	-0.24542	0.255885	0.147283	0	0	0.410553	-0.00873712	-0.0684444	1.03225	0.106872	0	0	-0.175236	0.00314615	-0.0105019	0.0750287	-0.224451	0.244822	0.534378	1.10623	0	0	-0.164405	-0.208215	0.211972	0.708752	0.95958	0	0
1.48	-2.79459	1.45591	-1.89907	0.749612	1.05494	0.964516	-0.100294	-0.0381324	-0.243886	0.249767	0.157174	0	0	0.414986	-0.0233011	-0.114195	0.998279	0.105509	0	0	-0.17751	0.00612006	-0.00109252	0.0852457	-0.227136	0.251698	0.534763	1.10636	0	0	-0.171988	-0.205475	0.206974	0.713071	0.961293	0	0
1.49	-2.76992	1.45538	-1.92852	0.75011	1.06376	0.96389	-0.109548	-0.0412625	-0.240391	0.250272	0.165038	0	0	0.418271	-0.0243543	-0.131209	0.953811	0.109673	0	0	-0.178965	0.00190093	0.00352919	0.09528	-0.227374	0.257427	0.534017	1.1061	0	0	-0.176538	-0.205059	0.20285	0.715935	0.961872	0	0
